<svg width="24" height="24" viewBox="0 0 24 24" fill="none" xmlns="http://www.w3.org/2000/svg">
<path d="M8.322 14.493C7.38 15.986 6.909 16.733 7.23 17.343C7.551 17.953 8.45 18.024 10.251 18.165L10.717 18.201C11.229 18.241 11.485 18.261 11.708 18.378C11.932 18.496 12.098 18.698 12.431 19.102L12.733 19.469C13.903 20.889 14.487 21.599 15.154 21.509C15.821 21.417 16.129 20.585 16.744 18.919L16.904 18.489C17.078 18.016 17.165 17.779 17.337 17.608C17.509 17.437 17.745 17.348 18.218 17.174L18.648 17.014C20.314 16.4 21.146 16.092 21.238 15.425C21.328 14.758 20.618 14.174 19.198 13.005M17.894 10.522C17.754 8.722 17.683 7.822 17.072 7.501C16.462 7.18 15.715 7.651 14.222 8.593L13.836 8.836C13.412 9.104 13.2 9.238 12.956 9.271C12.711 9.305 12.462 9.234 11.964 9.093L11.511 8.963C9.76 8.466 8.884 8.217 8.415 8.686C7.946 9.155 8.195 10.031 8.693 11.782M13.5 6.5L13 6M9.5 2.5L11.5 4.5M6.5 6.5L4 4M6 12L4.5 10.5M2 8L2.5 8.5" stroke="#B8860B" stroke-width="0.8" stroke-linecap="round"/>
</svg>
