<svg width="24" height="24" viewBox="0 0 24 24" fill="none" xmlns="http://www.w3.org/2000/svg">
<path d="M12 3C11.4067 3 10.8266 3.17595 10.3333 3.50559C9.83994 3.83524 9.45542 4.30377 9.22836 4.85195C9.0013 5.40013 8.94189 6.00333 9.05764 6.58527C9.1734 7.16721 9.45912 7.70176 9.87868 8.12132C10.2982 8.54088 10.8328 8.8266 11.4147 8.94236C11.9967 9.05811 12.5999 8.9987 13.1481 8.77164C13.6962 8.54458 14.1648 8.16006 14.4944 7.66671C14.8241 7.17336 15 6.59334 15 6M5.5 15C6.09334 15 6.67336 15.1759 7.16671 15.5056C7.66006 15.8352 8.04458 16.3038 8.27164 16.8519C8.4987 17.4001 8.55811 18.0033 8.44236 18.5853C8.3266 19.1672 8.04088 19.7018 7.62132 20.1213C7.20176 20.5409 6.66721 20.8266 6.08527 20.9424C5.50333 21.0581 4.90013 20.9987 4.35195 20.7716C3.80377 20.5446 3.33524 20.1601 3.00559 19.6667C2.67595 19.1734 2.5 18.5933 2.5 18M18.5 21C17.9067 21 17.3266 20.8241 16.8333 20.4944C16.3399 20.1648 15.9554 19.6962 15.7284 19.1481C15.5013 18.5999 15.4419 17.9967 15.5576 17.4147C15.6734 16.8328 15.9591 16.2982 16.3787 15.8787C16.7982 15.4591 17.3328 15.1734 17.9147 15.0576C18.4967 14.9419 19.0999 15.0013 19.6481 15.2284C20.1962 15.4554 20.6648 15.8399 20.9944 16.3333C21.3241 16.8266 21.5 17.4067 21.5 18M20 13C20.0013 11.8648 19.7605 10.7424 19.2935 9.70776C18.8265 8.67309 18.1442 7.74995 17.292 7M4 13C3.99865 11.8648 4.23951 10.7424 4.70649 9.70776C5.17348 8.67309 5.85583 7.74995 6.708 7M10 20.748C10.6534 20.916 11.3254 21.0007 12 21C12.6746 21.0007 13.3466 20.916 14 20.748" stroke="#B8860B" stroke-width="0.5" stroke-linecap="round"/>
</svg>
