<svg width="24" height="24" viewBox="0 0 24 24" fill="none" xmlns="http://www.w3.org/2000/svg">
<path d="M14.5 4.5C14.5 5.16304 14.2366 5.79893 13.7678 6.26777C13.2989 6.73661 12.663 7 12 7C11.337 7 10.7011 6.73661 10.2322 6.26777C9.76339 5.79893 9.5 5.16304 9.5 4.5C9.5 3.83696 9.76339 3.20107 10.2322 2.73223C10.7011 2.26339 11.337 2 12 2C12.663 2 13.2989 2.26339 13.7678 2.73223C14.2366 3.20107 14.5 3.83696 14.5 4.5Z" stroke="#B8860B" stroke-width="0.5"/>
<path d="M21 17L19.842 16.61C19.6149 16.5333 19.399 16.4267 19.2 16.293L19.099 16.224C18.7601 15.9947 18.4826 15.6856 18.291 15.324C18.0993 14.9624 17.9994 14.5593 18 14.15C17.9993 13.786 17.962 13.4327 17.888 13.09M3 17L4.158 16.61C4.386 16.5333 4.6 16.4277 4.8 16.293L4.901 16.224C5.23995 15.9947 5.51741 15.6856 5.70903 15.324C5.90065 14.9624 6.00056 14.5593 6 14.15C6 11.713 7.744 9.63301 10.123 9.23201L11.013 9.08201C11.5 9.00001 12.5 9.00001 12.987 9.08201L13.878 9.23201C14.271 9.29901 14.648 9.41101 15.001 9.56201M9.5 16L8.575 17.233C8.428 17.429 8.355 17.528 8.271 17.614C8.06604 17.8283 7.81601 17.9943 7.539 18.1C7.427 18.143 7.309 18.173 7.069 18.233L5.276 18.681C4.87765 18.7813 4.52966 19.0237 4.29745 19.3625C4.06525 19.7014 3.96483 20.1134 4.01507 20.5211C4.06531 20.9288 4.26275 21.3041 4.57027 21.5764C4.8778 21.8488 5.27422 21.9994 5.685 22H6.368C8.077 22 9.738 21.446 11.105 20.421L13 19M14.5 16L15.227 16.969C15.57 17.427 15.742 17.656 15.965 17.825C16.0317 17.8757 16.1017 17.9223 16.175 17.965C16.417 18.105 16.695 18.174 17.25 18.313L18.724 18.681C19.1224 18.7813 19.4703 19.0237 19.7025 19.3625C19.9348 19.7014 20.0352 20.1134 19.9849 20.5211C19.9347 20.9288 19.7372 21.3041 19.4297 21.5764C19.1222 21.8488 18.7258 21.9994 18.315 22H17.378C16.815 22 16.534 22 16.255 21.984C15.4316 21.9379 14.6171 21.7901 13.83 21.544C13.563 21.461 13.3 21.363 12.774 21.165L11 20.5" stroke="#B8860B" stroke-width="0.5" stroke-linecap="round" stroke-linejoin="round"/>
</svg>
