<svg width="560" height="560" viewBox="0 0 560 560" fill="none" xmlns="http://www.w3.org/2000/svg">
<path d="M280 90L470 185V375L280 470L90 375V185L280 90Z" stroke="#B8860B" stroke-width="0.8"/>
<path d="M280 430C362.843 430 430 362.843 430 280C430 197.157 362.843 130 280 130C197.157 130 130 197.157 130 280C130 362.843 197.157 430 280 430Z" stroke="#B8860B" stroke-width="0.5"/>
<path opacity="0.5" d="M280 90V470M90 185L470 375M470 185L90 375" stroke="#B8860B" stroke-width="0.5"/>
<path d="M377.667 127.525C377.708 127.442 377.763 127.367 377.814 127.291L366.018 121.394C364.299 120.534 362.934 119.851 361.901 119.196C360.852 118.532 360.041 117.831 359.498 116.879C359.066 116.12 358.785 115.284 358.675 114.417C358.599 113.81 359.03 113.256 359.636 113.179C360.243 113.102 360.8 113.533 360.877 114.141C360.949 114.718 361.135 115.276 361.424 115.782C361.713 116.289 362.187 116.754 363.088 117.324C364.004 117.905 365.25 118.529 367.01 119.409L393.767 132.784C395.46 133.631 396.093 133.934 396.748 134.033C397.053 134.079 397.363 134.094 397.671 134.077C398.334 134.033 398.999 133.789 400.757 133.094C402.418 132.438 403.59 131.974 404.47 131.525C405.331 131.085 405.814 130.707 406.143 130.271L406.371 129.937C406.514 129.707 406.635 129.464 406.734 129.211L406.865 128.829C407.015 128.304 407.028 127.691 406.863 126.738C406.695 125.765 406.362 124.55 405.889 122.829C405.386 121 405.187 120.327 404.824 119.774C404.653 119.517 404.457 119.276 404.237 119.06L404.232 119.057C403.761 118.591 403.142 118.268 401.447 117.42L374.69 104.045C372.93 103.165 371.683 102.543 370.669 102.159C369.672 101.781 369.016 101.68 368.436 101.753C367.859 101.826 367.301 102.012 366.795 102.301C366.041 102.731 365.415 103.546 364.412 105.441C364.125 105.981 363.453 106.185 362.912 105.898C362.372 105.612 362.167 104.942 362.454 104.402C363.45 102.52 364.326 101.156 365.695 100.374C366.454 99.9413 367.292 99.6639 368.159 99.5546C369.246 99.4172 370.293 99.6457 371.454 100.085C372.598 100.519 373.963 101.201 375.682 102.06L402.439 115.436C404.005 116.218 405.011 116.708 405.791 117.48C406.123 117.807 406.419 118.167 406.676 118.555C407.276 119.469 407.562 120.55 408.026 122.239C408.488 123.919 408.855 125.256 409.046 126.359C409.24 127.48 409.274 128.466 408.994 129.44C408.769 130.221 408.401 130.957 407.912 131.606C407.3 132.415 406.489 132.984 405.476 133.501C404.48 134.009 403.191 134.515 401.573 135.153C399.942 135.798 398.908 136.217 397.817 136.289L397.811 136.289C397.579 136.302 397.345 136.304 397.113 136.293L396.418 136.225C395.335 136.061 394.341 135.552 392.775 134.769L381.484 129.125C381.454 129.212 381.426 129.3 381.384 129.384L379.403 133.348L382.501 134.897C383.048 135.171 383.268 135.837 382.994 136.384C382.721 136.932 382.056 137.155 381.509 136.882L371.595 131.926C371.047 131.652 370.825 130.985 371.099 130.438C371.372 129.89 372.039 129.668 372.587 129.941L375.685 131.49L377.667 127.525Z" fill="#B8860B"/>
<path d="M388.817 105.22C388.859 105.136 388.913 105.061 388.965 104.985L377.679 99.3431C376.112 98.5599 375.107 98.0693 374.325 97.3007C373.994 96.9751 373.697 96.6137 373.441 96.2262L373.437 96.2214C372.839 95.3063 372.554 94.2276 372.091 92.5355C371.63 90.8582 371.259 89.5228 371.068 88.4212C370.874 87.2998 370.844 86.3135 371.124 85.339L371.122 85.3354C371.348 84.5542 371.714 83.8205 372.204 83.1716L372.208 83.1704C372.819 82.3633 373.625 81.7963 374.639 81.2788C375.636 80.7697 376.927 80.2627 378.548 79.6242C380.178 78.9796 381.212 78.5592 382.303 78.4912C382.766 78.4639 383.234 78.4872 383.693 78.5565C384.78 78.7172 385.777 79.2265 387.344 80.0095L414.1 93.3849C415.819 94.2443 417.184 94.9273 418.217 95.5821C419.266 96.2466 420.077 96.9473 420.62 97.8992C421.052 98.6579 421.331 99.494 421.44 100.361C421.637 101.925 421.074 103.446 420.166 105.372C419.906 105.925 419.245 106.163 418.691 105.902C418.138 105.641 417.9 104.983 418.16 104.429C419.074 102.49 419.35 101.499 419.241 100.638C419.187 100.204 419.068 99.7828 418.89 99.3854L418.694 98.997C418.405 98.4896 417.93 98.0248 417.03 97.4543C416.114 96.8738 414.868 96.2495 413.108 95.3695L386.351 81.9942C384.656 81.1467 384.024 80.8449 383.368 80.748C383.062 80.7014 382.748 80.6827 382.439 80.7009L382.44 80.7045C381.78 80.7459 381.119 80.9894 379.361 81.685C377.7 82.3391 376.527 82.8047 375.648 83.2536C375.002 83.5837 374.569 83.8795 374.254 84.1904L373.975 84.5074C373.648 84.9402 373.404 85.429 373.254 85.95L373.168 86.3639C373.108 86.8028 373.131 87.3262 373.255 88.041C373.339 88.5273 373.464 89.0749 373.628 89.7158L374.229 91.9496C374.728 93.7733 374.928 94.4531 375.292 95.0099C375.377 95.1374 375.467 95.261 375.565 95.3789L375.88 95.7213C376.353 96.1868 376.976 96.5112 378.671 97.3584L405.428 110.734C407.188 111.614 408.435 112.236 409.449 112.62C410.446 112.998 411.102 113.098 411.682 113.025L412.11 112.949C412.535 112.852 412.943 112.695 413.323 112.478C413.854 112.175 414.531 112.361 414.834 112.892C415.137 113.424 414.952 114.1 414.42 114.403C413.662 114.836 412.826 115.115 411.959 115.224C410.872 115.361 409.825 115.133 408.664 114.693C407.52 114.26 406.155 113.578 404.436 112.718L392.634 106.819C392.604 106.906 392.577 106.995 392.535 107.078L391.296 109.556L387.578 107.698L388.817 105.22Z" fill="#B8860B"/>
<path d="M399.968 82.9135C400.214 82.4205 400.646 82.0459 401.169 81.8715C401.692 81.6973 402.263 81.7375 402.756 81.9839C403.248 82.2304 403.623 82.6627 403.798 83.1855C403.972 83.7082 403.932 84.279 403.685 84.7719L402.446 87.2503L398.729 85.3919L399.968 82.9135Z" fill="#B8860B"/>
<path fill-rule="evenodd" clip-rule="evenodd" d="M529.244 291.203C529.618 295.373 528.209 299.38 525.618 302.527C520.426 308.83 510.501 311.693 500.361 305.925C498.425 305.12 496.09 303.217 493.743 300.93C491.321 298.571 488.762 295.682 486.426 292.837C484.088 289.99 481.958 287.169 480.392 284.936C479.61 283.82 478.961 282.841 478.495 282.073C478.263 281.69 478.066 281.345 477.921 281.055C477.798 280.808 477.644 280.472 477.599 280.157C477.552 279.825 477.61 279.505 477.675 279.264C477.744 279.006 477.851 278.734 477.973 278.466C478.216 277.927 478.568 277.3 478.985 276.631C479.821 275.289 480.978 273.67 482.215 272.045C484.685 268.801 487.559 265.416 488.996 263.979C489.429 263.546 490.13 263.546 490.563 263.979C490.996 264.411 490.996 265.112 490.563 265.545C489.228 266.88 486.425 270.175 483.98 273.387C482.76 274.989 481.649 276.545 480.865 277.803C480.472 278.434 480.176 278.968 479.991 279.378C479.983 279.395 479.979 279.413 479.972 279.429L490.904 281.859L496.665 276.098L506.257 284.319L512.657 275.36L513.071 274.783L521.234 278.864C528.103 272.358 527.955 264.182 523.881 258.854C519.75 253.453 511.36 250.722 501.384 256.042C500.844 256.329 500.173 256.124 499.885 255.585C499.597 255.045 499.803 254.374 500.342 254.086C511.146 248.324 520.767 251.132 525.642 257.506C530.32 263.623 530.417 272.78 523.28 279.965C527.013 283.405 528.895 287.328 529.244 291.203ZM523.905 301.117C526.162 298.376 527.353 294.936 527.036 291.4C526.719 287.877 524.894 284.153 520.934 280.852L520.101 280.154L513.598 276.905L506.555 286.765L496.751 278.36L491.432 283.68L490.985 283.583L480.619 281.277C481.031 281.933 481.563 282.746 482.207 283.664C483.74 285.849 485.834 288.626 488.139 291.433C490.445 294.241 492.945 297.062 495.288 299.345C497.666 301.662 499.767 303.306 501.276 303.909L501.346 303.939L501.414 303.977C510.652 309.256 519.406 306.578 523.905 301.117Z" fill="#B8860B"/>
<path d="M381.383 430.616C381.425 430.699 381.453 430.787 381.482 430.875L393.279 424.977C394.998 424.118 396.364 423.436 397.507 423.003C398.668 422.563 399.716 422.335 400.803 422.472C401.669 422.581 402.507 422.859 403.266 423.291C403.797 423.595 403.983 424.272 403.68 424.803C403.377 425.335 402.698 425.521 402.166 425.218C401.66 424.929 401.103 424.744 400.525 424.671C399.946 424.598 399.289 424.698 398.293 425.076C397.279 425.46 396.032 426.082 394.271 426.962L367.514 440.338C365.821 441.184 365.199 441.508 364.726 441.973C364.507 442.189 364.308 442.429 364.138 442.685C363.774 443.242 363.571 443.92 363.072 445.744C362.599 447.465 362.267 448.682 362.098 449.655C361.933 450.608 361.946 451.221 362.097 451.746L362.228 452.128C362.326 452.381 362.448 452.624 362.591 452.855L362.818 453.189C363.147 453.623 363.63 454.002 364.492 454.442C365.37 454.891 366.542 455.355 368.203 456.009C369.967 456.704 370.626 456.949 371.286 456.99C371.594 457.008 371.905 456.996 372.21 456.949L372.214 456.947C372.869 456.85 373.5 456.549 375.195 455.702L401.952 442.326C403.712 441.446 404.958 440.822 405.874 440.242C406.774 439.671 407.249 439.206 407.538 438.699C407.826 438.193 408.012 437.636 408.085 437.058C408.193 436.197 407.917 435.206 407.003 433.267C406.743 432.713 406.984 432.054 407.537 431.793C408.091 431.533 408.749 431.771 409.01 432.324C409.917 434.25 410.483 435.77 410.286 437.334C410.177 438.201 409.896 439.038 409.463 439.797C408.921 440.749 408.109 441.449 407.061 442.114C406.028 442.769 404.663 443.452 402.944 444.311L376.187 457.686C374.622 458.469 373.626 458.98 372.54 459.141C372.079 459.211 371.614 459.231 371.149 459.204C370.058 459.135 369.022 458.714 367.392 458.072C365.771 457.433 364.482 456.925 363.485 456.416C362.471 455.898 361.662 455.333 361.051 454.526C360.561 453.876 360.194 453.141 359.968 452.359C359.689 451.384 359.72 450.395 359.914 449.274C360.106 448.172 360.474 446.838 360.935 445.16C361.397 443.469 361.683 442.39 362.281 441.475L362.284 441.47C362.413 441.276 362.552 441.087 362.699 440.908L363.171 440.394C363.952 439.626 364.956 439.136 366.522 438.353L377.813 432.709C377.761 432.632 377.707 432.557 377.666 432.474L375.684 428.509L372.586 430.058C372.038 430.332 371.373 430.108 371.1 429.561C370.826 429.013 371.046 428.347 371.594 428.073L381.507 423.118C382.055 422.844 382.722 423.066 382.996 423.614C383.269 424.162 383.047 424.829 382.499 425.102L379.401 426.651L381.383 430.616Z" fill="#B8860B"/>
<path d="M392.534 452.922C392.575 453.005 392.603 453.094 392.633 453.181L403.919 447.539C405.486 446.756 406.481 446.246 407.565 446.082C408.024 446.013 408.492 445.992 408.955 446.02L408.962 446.02C410.052 446.091 411.086 446.51 412.718 447.155C414.336 447.793 415.627 448.298 416.622 448.806C417.636 449.323 418.443 449.892 419.055 450.7L419.058 450.701C419.548 451.35 419.915 452.084 420.14 452.865L420.139 452.869C420.418 453.842 420.387 454.827 420.193 455.948C420.002 457.051 419.632 458.389 419.17 460.069C418.708 461.759 418.423 462.839 417.823 463.752C417.567 464.139 417.267 464.499 416.937 464.824C416.156 465.597 415.15 466.09 413.583 466.873L386.827 480.248C385.108 481.107 383.742 481.789 382.599 482.223C381.438 482.662 380.39 482.891 379.303 482.754C378.437 482.644 377.601 482.366 376.842 481.933C375.473 481.151 374.594 479.788 373.598 477.907C373.312 477.366 373.518 476.695 374.059 476.409C374.6 476.123 375.27 476.327 375.556 476.867C376.559 478.762 377.186 479.577 377.94 480.008C378.319 480.224 378.728 480.382 379.152 480.479L379.581 480.555C380.16 480.628 380.817 480.527 381.813 480.15C382.827 479.765 384.074 479.143 385.835 478.263L412.591 464.888C414.287 464.041 414.908 463.716 415.378 463.25C415.6 463.033 415.803 462.793 415.974 462.535L415.97 462.533C416.333 461.981 416.535 461.306 417.034 459.482C417.508 457.761 417.839 456.543 418.007 455.571C418.131 454.856 418.154 454.332 418.095 453.893L418.009 453.48C417.859 452.959 417.614 452.47 417.288 452.037L417.008 451.72C416.693 451.409 416.26 451.113 415.614 450.783C415.175 450.559 414.662 450.33 414.051 450.076L411.903 449.217C410.145 448.522 409.481 448.274 408.817 448.231C408.665 448.222 408.511 448.22 408.359 448.227L407.895 448.274C407.239 448.373 406.606 448.677 404.911 449.524L378.154 462.899C376.394 463.779 375.148 464.404 374.232 464.984C373.332 465.554 372.857 466.019 372.568 466.527L372.372 466.915C372.195 467.313 372.076 467.734 372.021 468.167C371.944 468.774 371.39 469.204 370.783 469.128C370.176 469.052 369.746 468.497 369.822 467.89C369.931 467.024 370.21 466.188 370.643 465.429C371.185 464.477 371.997 463.776 373.045 463.112C374.078 462.457 375.443 461.774 377.162 460.915L388.964 455.015C388.912 454.939 388.858 454.864 388.816 454.78L387.577 452.302L391.295 450.444L392.534 452.922Z" fill="#B8860B"/>
<path d="M403.684 475.227C403.931 475.72 403.971 476.291 403.796 476.814C403.622 477.336 403.247 477.769 402.755 478.015C402.262 478.261 401.691 478.302 401.168 478.128C400.645 477.953 400.213 477.578 399.966 477.086L398.728 474.607L402.445 472.749L403.684 475.227Z" fill="#B8860B"/>
<path fill-rule="evenodd" clip-rule="evenodd" d="M148.487 470.481C144.59 468.951 141.635 465.899 139.98 462.174C136.663 454.712 138.54 444.554 148.233 438.063C149.819 436.691 152.565 435.453 155.66 434.377C158.853 433.266 162.582 432.268 166.171 431.451C169.762 430.633 173.238 429.989 175.936 429.586C177.284 429.385 178.449 429.243 179.345 429.17C179.792 429.133 180.188 429.112 180.512 429.112C180.788 429.112 181.157 429.125 181.459 429.225C181.777 429.331 182.037 429.527 182.224 429.692C182.424 429.87 182.619 430.087 182.805 430.316C183.178 430.774 183.582 431.37 183.993 432.041C184.82 433.389 185.751 435.148 186.651 436.982C188.449 440.641 190.191 444.725 190.834 446.654C191.028 447.234 190.714 447.861 190.134 448.055C189.553 448.249 188.926 447.935 188.732 447.354C188.135 445.564 186.441 441.583 184.662 437.96C183.774 436.152 182.879 434.462 182.104 433.199C181.716 432.566 181.371 432.062 181.087 431.713C181.075 431.699 181.061 431.687 181.049 431.673L173.988 440.365L176.565 448.094L164.923 452.998L170.075 462.728L170.405 463.356L163.105 468.834C165.853 477.887 173.233 481.41 179.82 480.148C186.498 478.868 192.693 472.585 192.394 461.283C192.379 460.672 192.862 460.162 193.473 460.146C194.085 460.13 194.593 460.614 194.61 461.225C194.933 473.466 188.119 480.816 180.238 482.326C172.675 483.775 164.441 479.767 161.206 470.171C156.46 471.972 152.109 471.902 148.487 470.481ZM142.006 461.272C143.449 464.517 145.994 467.121 149.298 468.418C152.591 469.71 156.738 469.743 161.461 467.676L162.458 467.243L168.272 462.88L162.602 452.171L174.503 447.16L172.123 440.023L172.41 439.667L179.107 431.425C178.336 431.501 177.371 431.614 176.262 431.779C173.622 432.173 170.201 432.804 166.661 433.611C163.118 434.418 159.476 435.393 156.387 436.468C153.251 437.559 150.842 438.703 149.627 439.783L149.569 439.832L149.505 439.876C140.653 445.779 139.133 454.807 142.006 461.272Z" fill="#B8860B"/>
<path d="M79.8856 282.078C79.7924 282.078 79.701 282.063 79.6096 282.051V295.239C79.6096 297.161 79.6088 298.687 79.4852 299.904C79.3596 301.139 79.0956 302.178 78.4867 303.089C78.0014 303.816 77.3784 304.441 76.6521 304.926C76.1434 305.266 75.4551 305.129 75.1152 304.621C74.7751 304.112 74.912 303.421 75.4209 303.081C75.9051 302.758 76.3205 302.342 76.644 301.858C76.9685 301.373 77.172 300.74 77.2799 299.68C77.3895 298.601 77.3908 297.207 77.3908 295.239V265.326C77.3908 263.432 77.3788 262.731 77.1743 262.1C77.0796 261.808 76.954 261.523 76.8009 261.256C76.4655 260.682 75.9499 260.196 74.5415 258.934C73.213 257.742 72.273 256.901 71.4784 256.315C70.7001 255.741 70.1456 255.479 69.6087 255.379L69.2081 255.325C68.9381 255.3 68.6664 255.3 68.3964 255.325L67.9959 255.379C67.4597 255.479 66.9049 255.741 66.1261 256.315C65.3318 256.901 64.3932 257.742 63.0658 258.934C61.6546 260.202 61.1413 260.681 60.809 261.253C60.6554 261.521 60.5279 261.804 60.4329 262.098V262.103C60.2268 262.732 60.2139 263.431 60.2139 265.326V295.239C60.2139 297.207 60.2151 298.601 60.3248 299.68C60.4325 300.74 60.636 301.373 60.9606 301.858C61.2841 302.342 61.6996 302.758 62.1837 303.081C62.9059 303.563 63.915 303.759 66.0585 303.809C66.6699 303.824 67.1525 304.334 67.1381 304.945C67.1232 305.557 66.6159 306.039 66.0044 306.025C63.8761 305.975 62.2638 305.802 60.9525 304.926C60.2261 304.441 59.6033 303.816 59.1179 303.089C58.5089 302.178 58.2451 301.139 58.1194 299.904C57.9957 298.687 57.995 297.161 57.995 295.239L57.995 265.326C57.995 263.576 57.9832 262.457 58.3251 261.413C58.4684 260.97 58.6582 260.545 58.8906 260.141C59.4395 259.196 60.2794 258.457 61.583 257.287C62.8789 256.122 63.9099 255.196 64.8111 254.532C65.7274 253.857 66.5947 253.386 67.59 253.201C68.3898 253.053 69.2121 253.053 70.0118 253.201C71.0091 253.386 71.8805 253.857 72.7962 254.532C73.6961 255.196 74.7247 256.122 76.0189 257.284C77.3254 258.454 78.1627 259.192 78.714 260.136L78.7167 260.141C78.8328 260.343 78.9391 260.551 79.0332 260.764L79.2822 261.416C79.6203 262.458 79.6096 263.575 79.6096 265.326V277.949C79.701 277.937 79.7924 277.922 79.8856 277.922H84.3178V274.458C84.3181 273.846 84.8153 273.351 85.4273 273.351C86.0393 273.351 86.5364 273.846 86.5367 274.458V285.541C86.5367 286.154 86.0394 286.651 85.4273 286.651C84.8151 286.651 84.3178 286.154 84.3178 285.541V282.078H79.8856Z" fill="#B8860B"/>
<path d="M54.9481 282.078C54.8549 282.078 54.7635 282.063 54.6721 282.051V294.669C54.6721 296.42 54.6829 297.539 54.3447 298.581C54.2016 299.023 54.0111 299.45 53.7792 299.853L53.7765 299.858C53.2252 300.802 52.388 301.54 51.0814 302.71C49.7874 303.873 48.7586 304.802 47.8587 305.465C46.9426 306.14 46.0737 306.608 45.077 306.794L45.0743 306.796C44.2749 306.944 43.4547 306.944 42.6552 306.796L42.6525 306.794C41.6574 306.608 40.7896 306.14 39.8736 305.465C38.9724 304.801 37.9415 303.872 36.6455 302.708C35.3403 301.538 34.5018 300.801 33.9531 299.856C33.7216 299.454 33.5334 299.025 33.3903 298.584C33.048 297.54 33.0575 296.42 33.0575 294.669V264.755C33.0575 262.833 33.0582 261.307 33.1819 260.09C33.3076 258.855 33.5714 257.816 34.1804 256.905C34.6656 256.179 35.2888 255.556 36.015 255.071C37.3263 254.195 38.9384 254.019 41.0669 253.969C41.6788 253.955 42.1864 254.44 42.2006 255.052C42.2146 255.663 41.7322 256.17 41.121 256.185C38.9777 256.235 37.9684 256.431 37.2462 256.913C36.883 257.156 36.559 257.451 36.2829 257.787L36.0231 258.136C35.6985 258.622 35.4951 259.254 35.3872 260.314C35.2775 261.393 35.2763 262.787 35.2763 264.755V294.669C35.2763 296.564 35.2892 297.265 35.4955 297.894C35.5908 298.189 35.7142 298.478 35.8689 298.746L35.8716 298.744C36.2037 299.316 36.7172 299.798 38.1256 301.06C39.4532 302.253 40.3942 303.094 41.1886 303.679C41.7729 304.11 42.2309 304.364 42.6499 304.507L43.0584 304.615C43.5915 304.714 44.138 304.714 44.6712 304.615L45.0798 304.507C45.4993 304.365 45.9569 304.11 46.5409 303.679C46.9382 303.386 47.3722 303.03 47.8722 302.597L49.6012 301.06C51.0095 299.798 51.528 299.315 51.8634 298.741C51.9397 298.608 52.0097 298.472 52.0717 298.332L52.2368 297.897C52.4416 297.265 52.4533 296.563 52.4533 294.669V264.755C52.4533 262.787 52.452 261.393 52.3424 260.314C52.2345 259.254 52.031 258.622 51.7065 258.136L51.4468 257.787C51.1705 257.451 50.8467 257.156 50.4834 256.913C49.9747 256.573 49.8383 255.885 50.1777 255.376C50.5176 254.867 51.2056 254.73 51.7146 255.071C52.4408 255.556 53.0639 256.179 53.5492 256.905C54.1582 257.816 54.422 258.855 54.5477 260.09C54.6713 261.307 54.6721 262.833 54.6721 264.755V277.949C54.7635 277.937 54.8549 277.922 54.9481 277.922H57.7189V282.078H54.9481Z" fill="#B8860B"/>
<path d="M30.0106 282.078C29.4595 282.078 28.931 281.859 28.5413 281.469C28.1517 281.08 27.9325 280.551 27.9325 280C27.9326 279.449 28.1517 278.92 28.5413 278.531C28.931 278.141 29.4596 277.922 30.0106 277.922H32.7815V282.078H30.0106Z" fill="#B8860B"/>
<path fill-rule="evenodd" clip-rule="evenodd" d="M168.528 79.5007C172.09 77.3013 176.305 76.7697 180.278 77.6805C188.237 79.5061 195.237 87.1036 194.611 98.7521C194.757 100.844 194.099 103.784 193.103 106.906C192.075 110.127 190.635 113.708 189.135 117.069C187.634 120.433 186.063 123.6 184.766 125.999C184.118 127.198 183.532 128.216 183.053 128.976C182.814 129.355 182.594 129.685 182.399 129.944C182.233 130.165 182.001 130.453 181.74 130.634C181.464 130.824 181.152 130.915 180.907 130.965C180.645 131.019 180.355 131.044 180.06 131.056C179.47 131.079 178.751 131.045 177.967 130.971C176.392 130.823 174.427 130.512 172.42 130.132C168.414 129.374 164.101 128.316 162.173 127.673C161.592 127.48 161.279 126.853 161.472 126.272C161.666 125.691 162.293 125.378 162.874 125.572C164.664 126.168 168.865 127.203 172.831 127.954C174.81 128.329 176.699 128.627 178.174 128.765C178.914 128.835 179.524 128.86 179.973 128.843C179.992 128.842 180.01 128.838 180.028 128.837L177.313 117.972L169.584 115.395L172.648 103.139L161.773 101.421L161.073 101.309L161.072 92.182C152.182 88.9469 144.934 92.7353 141.991 98.7621C139.007 104.872 140.315 113.598 149.535 120.142C150.032 120.496 150.15 121.189 149.796 121.687C149.442 122.186 148.75 122.302 148.251 121.948C138.266 114.861 136.476 105 139.998 97.789C143.378 90.8694 151.525 86.6888 161.143 89.8598C162.55 84.9827 165.218 81.5447 168.528 79.5007ZM179.783 79.8429C176.322 79.0494 172.712 79.5224 169.691 81.3874C166.682 83.2458 164.167 86.5431 162.985 91.5614L162.734 92.619L162.734 99.8881L174.703 101.779L171.569 114.306L178.706 116.686L178.819 117.129L181.392 127.432C181.794 126.77 182.283 125.931 182.816 124.944C184.085 122.596 185.633 119.481 187.113 116.165C188.594 112.847 189.999 109.348 190.993 106.233C192.003 103.069 192.534 100.455 192.399 98.8355L192.394 98.7593L192.398 98.6818C192.988 88.0583 186.679 81.425 179.783 79.8429Z" fill="#B8860B"/>
</svg>
