<svg width="620" height="620" viewBox="0 0 620 620" fill="none" xmlns="http://www.w3.org/2000/svg">
<path d="M310 558C446.967 558 558 446.967 558 310C558 173.033 446.967 62 310 62C173.033 62 62 173.033 62 310C62 446.967 173.033 558 310 558Z" stroke="#B8860B" stroke-width="0.5" stroke-dasharray="4 4"/>
<path d="M310 70L526 445H94L310 70Z" stroke="#B8860B" stroke-width="0.5"/>
<path d="M310 550L94 175H526L310 550Z" stroke="#B8860B" stroke-width="0.5"/>
<g clip-path="url(#clip0_55_167)">
<path fill-rule="evenodd" clip-rule="evenodd" d="M317.211 20C317.742 20 318.174 20.4244 318.174 20.9469V29.5167C319.987 29.7284 321.687 30.5315 322.991 31.8144C324.523 33.3222 325.385 35.3676 325.385 37.5C325.385 39.6323 324.523 41.6777 322.991 43.1856C321.687 44.4683 319.987 45.2693 318.174 45.4809V53.1041C321.082 53.1023 323.268 53.0867 325.012 52.9124C326.927 52.7208 328.202 52.3481 329.23 51.6723C330.175 51.0512 330.986 50.2531 331.617 49.3237C332.304 48.312 332.683 47.0592 332.878 45.1762C333.074 43.2768 333.075 40.8421 333.075 37.5C333.075 34.1579 333.074 31.7231 332.878 29.8238C332.683 27.9407 332.304 26.6879 331.617 25.6763C330.986 24.7469 330.175 23.9488 329.23 23.3277C328.521 22.8615 327.698 22.541 326.631 22.3231C326.111 22.217 325.777 21.7146 325.885 21.2032C325.993 20.6921 326.502 20.3652 327.021 20.4711C328.271 20.7263 329.339 21.1242 330.298 21.755C331.453 22.5142 332.444 23.4894 333.216 24.6255C334.149 25.9996 334.581 27.5993 334.791 29.6321C335 31.6495 335 34.1973 335 37.5C335 40.8027 335 43.3505 334.791 45.3679C334.581 47.4007 334.149 49.0003 333.216 50.3745C332.444 51.5106 331.453 52.4858 330.298 53.2449C328.901 54.1629 327.274 54.5876 325.207 54.7944C323.156 54.9997 320.567 55 317.211 55H302.789C302.258 55 301.826 54.5756 301.826 54.0531V45.4809C300.013 45.2693 298.313 44.4683 297.009 43.1856C295.477 41.6777 294.615 39.6323 294.615 37.5C294.615 35.3676 295.477 33.3222 297.009 31.8144C298.313 30.5315 300.013 29.7284 301.826 29.5167V21.8936C298.918 21.8954 296.732 21.9133 294.988 22.0876C293.073 22.2792 291.798 22.6519 290.77 23.3277C289.825 23.9488 289.014 24.7469 288.383 25.6763C287.696 26.6879 287.317 27.9407 287.122 29.8238C286.926 31.7231 286.925 34.1579 286.925 37.5C286.925 40.8421 286.926 43.2768 287.122 45.1762C287.317 47.0592 287.696 48.312 288.383 49.3237C289.014 50.2531 289.825 51.0512 290.77 51.6723C291.479 52.1385 292.302 52.459 293.369 52.6768C293.889 52.783 294.223 53.2854 294.115 53.7968C294.007 54.3078 293.498 54.6348 292.979 54.5288C291.729 54.2737 290.661 53.8758 289.702 53.2449C288.547 52.4858 287.556 51.5106 286.784 50.3745C285.851 49.0003 285.419 47.4007 285.209 45.3679C285 43.3505 285 40.8027 285 37.5C285 34.1973 285 31.6495 285.209 29.6321C285.419 27.5993 285.851 25.9996 286.784 24.6255C287.556 23.4894 288.547 22.5142 289.702 21.755C291.099 20.8371 292.726 20.4124 294.793 20.2055C296.844 20.0004 299.433 20 302.789 20H317.211ZM303.751 21.8936V53.1064H316.249V21.8936H303.751ZM301.826 31.4335C300.525 31.6326 299.311 32.2244 298.369 33.1515C297.196 34.3045 296.54 35.8693 296.54 37.5C296.54 39.1306 297.196 40.6954 298.369 41.8485C299.311 42.7756 300.525 43.365 301.826 43.5642V31.4335ZM318.174 43.5642C319.475 43.365 320.689 42.7756 321.631 41.8485C322.804 40.6954 323.46 39.1306 323.46 37.5C323.46 35.8693 322.804 34.3045 321.631 33.1515C320.689 32.2244 319.475 31.6326 318.174 31.4335V43.5642Z" fill="#B8860B"/>
</g>
<g clip-path="url(#clip1_55_167)">
<path d="M573.422 142.537C575.588 144.789 577.015 147.648 577.516 150.733C578.018 153.817 577.57 156.982 576.229 159.804C574.888 162.626 572.718 164.974 570.011 166.533L566.608 168.493C566.985 169.23 567.31 169.914 567.574 170.556C568.365 172.489 568.671 174.177 568.206 175.902C567.743 177.629 566.63 178.938 564.976 180.212C563.343 181.47 561.067 182.78 558.146 184.463C555.224 186.145 552.949 187.456 551.041 188.238C549.109 189.029 547.421 189.335 545.695 188.87C543.968 188.407 542.66 187.295 541.386 185.639C540.128 184.006 538.818 181.731 537.135 178.81L535.935 176.727C535.67 176.267 535.829 175.677 536.289 175.412C536.749 175.148 537.338 175.306 537.603 175.766L538.803 177.849C540.513 180.818 541.747 182.961 542.908 184.468C544.051 185.952 545.037 186.702 546.194 187.012C547.35 187.324 548.579 187.171 550.313 186.46C552.073 185.739 554.217 184.504 557.185 182.795C560.153 181.085 562.297 179.85 563.804 178.69C565.288 177.547 566.038 176.561 566.348 175.404C566.66 174.247 566.507 173.019 565.796 171.285C565.075 169.525 563.841 167.382 562.131 164.413L552.533 147.749C550.824 144.781 549.589 142.637 548.429 141.131C547.286 139.646 546.3 138.897 545.143 138.586C543.986 138.274 542.757 138.428 541.023 139.138C539.264 139.859 537.12 141.094 534.152 142.803C531.183 144.513 529.04 145.748 527.533 146.908C526.234 147.908 525.496 148.788 525.124 149.766L524.988 150.194L524.891 150.632C524.721 151.666 524.919 152.796 525.54 154.313C526.261 156.073 527.496 158.216 529.206 161.185L532.805 167.434C533.07 167.894 532.911 168.483 532.451 168.748C531.991 169.013 531.402 168.855 531.137 168.395L527.538 162.146C525.855 159.224 524.544 156.949 523.763 155.042C522.971 153.109 522.665 151.419 523.131 149.693C523.595 147.968 524.707 146.66 526.361 145.386C527.994 144.129 530.27 142.818 533.191 141.135C536.112 139.453 538.388 138.142 540.295 137.361C542.228 136.569 543.918 136.263 545.644 136.729C547.37 137.193 548.677 138.304 549.951 139.959C550.374 140.509 550.802 141.133 551.251 141.83L554.654 139.87C555.408 139.435 556.185 139.07 556.982 138.775C557.48 138.591 558.033 138.847 558.217 139.345C558.401 139.843 558.147 140.395 557.65 140.579C556.957 140.836 556.278 141.155 555.614 141.538L552.262 143.468C552.858 144.463 553.499 145.569 554.201 146.789L563.799 163.452C564.502 164.672 565.136 165.781 565.698 166.796L569.05 164.865C571.419 163.501 573.318 161.448 574.491 158.979C575.664 156.51 576.058 153.741 575.619 151.042C575.181 148.343 573.929 145.841 572.033 143.87C570.138 141.9 567.688 140.552 565.009 140.009C564.489 139.903 564.153 139.395 564.258 138.875C564.364 138.355 564.872 138.019 565.392 138.125C568.454 138.746 571.256 140.285 573.422 142.537Z" fill="#B8860B"/>
<path d="M550.666 159.921C550.931 160.381 550.774 160.969 550.315 161.234L541.983 166.033C541.523 166.298 540.933 166.139 540.668 165.679C540.403 165.219 540.562 164.63 541.022 164.365L549.354 159.566C549.814 159.302 550.401 159.461 550.666 159.921Z" fill="#B8860B"/>
</g>
<g clip-path="url(#clip2_55_167)">
<path fill-rule="evenodd" clip-rule="evenodd" d="M566.432 476.982C566.167 477.442 565.563 477.592 565.084 477.316L557.234 472.795C556.135 474.254 554.551 475.303 552.725 475.757C550.579 476.289 548.275 475.957 546.322 474.832C544.368 473.707 542.924 471.881 542.308 469.757C541.784 467.95 541.899 466.055 542.61 464.372L535.626 460.35C534.177 462.871 533.1 464.774 532.389 466.376C531.609 468.137 531.314 469.438 531.42 470.686C531.517 471.832 531.843 472.957 532.38 473.994C532.964 475.123 533.922 476.112 535.55 477.275C537.192 478.447 539.422 479.732 542.483 481.496C545.545 483.259 547.776 484.543 549.614 485.375C551.436 486.199 552.773 486.532 554.042 486.471C555.209 486.414 556.345 486.132 557.385 485.641C558.166 485.273 558.871 484.729 559.602 483.919C559.959 483.525 560.586 483.5 561.001 483.863C561.415 484.227 561.461 484.84 561.104 485.234C560.247 486.183 559.349 486.898 558.293 487.396C557.021 487.997 555.633 488.341 554.207 488.41C552.483 488.494 550.802 488.024 548.834 487.134C546.882 486.25 544.548 484.906 541.523 483.164C538.497 481.421 536.163 480.076 534.419 478.831C532.662 477.576 531.412 476.358 530.619 474.825C529.964 473.557 529.565 472.183 529.446 470.782C529.302 469.087 529.726 467.453 530.568 465.552C531.403 463.667 532.695 461.423 534.37 458.516L541.568 446.018C541.833 445.558 542.437 445.408 542.916 445.683L550.768 450.206C551.867 448.747 553.449 447.696 555.275 447.243C557.421 446.71 559.725 447.043 561.679 448.168C563.632 449.293 565.076 451.119 565.692 453.243C566.216 455.05 566.104 456.946 565.393 458.629L572.376 462.651C573.826 460.13 574.901 458.226 575.611 456.623C576.391 454.863 576.686 453.561 576.58 452.314C576.483 451.167 576.157 450.043 575.62 449.006C575.036 447.877 574.078 446.887 572.45 445.725C570.808 444.553 568.578 443.267 565.517 441.504C562.455 439.741 560.224 438.457 558.386 437.625C556.564 436.8 555.227 436.467 553.958 436.529C552.791 436.586 551.655 436.868 550.615 437.359C549.834 437.727 549.13 438.271 548.398 439.08C548.041 439.475 547.414 439.5 546.999 439.136C546.585 438.773 546.539 438.16 546.896 437.766C547.753 436.817 548.651 436.102 549.707 435.603C550.979 435.003 552.367 434.659 553.793 434.589C555.518 434.506 557.198 434.976 559.166 435.866C561.118 436.75 563.452 438.094 566.477 439.836C569.503 441.579 571.837 442.923 573.581 444.168C575.338 445.423 576.588 446.641 577.381 448.175C578.036 449.443 578.435 450.817 578.554 452.218C578.698 453.913 578.275 455.547 577.432 457.447C576.597 459.333 575.305 461.576 573.63 464.484L566.432 476.982ZM571.415 464.319L542.822 447.851L536.585 458.681L565.178 475.149L571.415 464.319ZM563.637 457.618C564.104 456.385 564.168 455.021 563.789 453.715C563.317 452.091 562.212 450.696 560.718 449.836C559.224 448.976 557.463 448.719 555.822 449.126C554.502 449.454 553.356 450.195 552.524 451.217L563.637 457.618ZM544.365 465.383C543.899 466.616 543.832 467.979 544.211 469.285C544.683 470.909 545.788 472.303 547.282 473.164C548.776 474.024 550.537 474.281 552.178 473.873C553.498 473.546 554.646 472.806 555.478 471.783L544.365 465.383Z" fill="#B8860B"/>
</g>
<g clip-path="url(#clip3_55_167)">
<path d="M306.293 614.547C309.326 615.3 312.516 615.11 315.439 614.005C318.362 612.9 320.881 610.933 322.657 608.362C324.433 605.791 325.385 602.74 325.385 599.615V595.688C326.212 595.647 326.967 595.588 327.655 595.496C329.724 595.217 331.34 594.64 332.603 593.376C333.868 592.112 334.447 590.495 334.725 588.425C335 586.383 335 583.756 335 580.385C335 577.014 335 574.388 334.725 572.345C334.447 570.276 333.87 568.66 332.606 567.397C331.342 566.131 329.725 565.553 327.655 565.275C325.612 565 322.986 565 319.615 565H317.211C316.68 565 316.249 565.431 316.249 565.962C316.249 566.493 316.68 566.925 317.211 566.925H319.615C323.041 566.925 325.514 566.925 327.399 567.178C329.256 567.428 330.397 567.908 331.244 568.756C332.092 569.603 332.572 570.744 332.822 572.601C333.075 574.486 333.075 576.96 333.075 580.385C333.075 583.811 333.075 586.285 332.822 588.169C332.572 590.026 332.092 591.168 331.244 592.014C330.397 592.862 329.256 593.342 327.399 593.592C325.514 593.845 323.041 593.845 319.615 593.845H300.385C296.959 593.845 294.486 593.845 292.601 593.592C290.744 593.342 289.603 592.862 288.756 592.014C287.908 591.168 287.428 590.026 287.178 588.169C286.925 586.285 286.925 583.811 286.925 580.385C286.925 576.96 286.925 574.486 287.178 572.601C287.397 570.976 287.79 569.898 288.453 569.087L288.756 568.756L289.087 568.453C289.898 567.79 290.976 567.397 292.601 567.178C294.486 566.925 296.959 566.925 300.385 566.925H307.596C308.127 566.925 308.558 566.493 308.559 565.962C308.559 565.431 308.127 565 307.596 565H300.385C297.014 565 294.388 565 292.345 565.275C290.275 565.553 288.658 566.131 287.394 567.397C286.131 568.66 285.553 570.276 285.275 572.345C285 574.388 285 577.014 285 580.385C285 583.756 285 586.383 285.275 588.425C285.553 590.495 286.132 592.112 287.397 593.376C288.66 594.64 290.276 595.217 292.345 595.496C293.033 595.588 293.788 595.647 294.615 595.688V599.615C294.615 600.486 294.686 601.341 294.829 602.179C294.917 602.702 295.415 603.054 295.939 602.965C296.462 602.876 296.814 602.38 296.725 601.857C296.602 601.129 296.54 600.381 296.54 599.615V595.747C297.7 595.767 298.977 595.77 300.385 595.77H319.615C321.023 595.77 322.3 595.767 323.46 595.747V599.615C323.46 602.349 322.629 605.019 321.075 607.268C319.521 609.517 317.318 611.24 314.761 612.207C312.203 613.174 309.41 613.338 306.756 612.679C304.103 612.02 301.712 610.57 299.904 608.519C299.553 608.121 298.945 608.084 298.547 608.435C298.149 608.786 298.112 609.393 298.462 609.792C300.529 612.135 303.261 613.795 306.293 614.547Z" fill="#B8860B"/>
<path d="M310 586.153C310.531 586.153 310.962 585.724 310.962 585.193V575.578C310.962 575.047 310.531 574.616 310 574.616C309.469 574.616 309.038 575.047 309.038 575.578V585.193C309.038 585.724 309.469 586.153 310 586.153Z" fill="#B8860B"/>
</g>
<g clip-path="url(#clip4_55_167)">
<path fill-rule="evenodd" clip-rule="evenodd" d="M47.2363 463.985C46.9713 463.525 47.1238 462.939 47.5765 462.678L55.0027 458.401C54.2812 456.724 54.1289 454.851 54.5896 453.08C55.1313 451 56.4737 449.232 58.3215 448.168C60.1693 447.104 62.3718 446.829 64.4433 447.405C66.2057 447.895 67.7483 448.968 68.8365 450.434L75.4423 446.629C73.9894 444.11 72.8846 442.223 71.8633 440.799C70.7416 439.235 69.7824 438.316 68.6834 437.763C67.6737 437.254 66.5772 436.949 65.4568 436.866C64.2373 436.776 62.9626 437.073 61.2336 437.844C59.4897 438.621 57.3795 439.836 54.4834 441.504C51.5873 443.172 49.4779 444.388 47.93 445.506C46.3954 446.615 45.499 447.568 44.9651 448.668C44.4748 449.679 44.1881 450.78 44.1214 451.909C44.0712 452.756 44.2043 453.629 44.5479 454.662C44.7155 455.166 44.447 455.706 43.9499 455.868C43.4531 456.029 42.9161 455.752 42.7485 455.249C42.3457 454.038 42.1577 452.915 42.2256 451.769C42.307 450.389 42.6574 449.043 43.2567 447.807C43.9818 446.313 45.1525 445.141 46.8091 443.944C48.4531 442.756 50.6607 441.484 53.5227 439.836C56.3847 438.188 58.5926 436.916 60.4449 436.09C62.3114 435.258 63.913 434.834 65.5694 434.956C66.939 435.058 68.2789 435.43 69.5131 436.052C71.0058 436.805 72.1862 438.003 73.397 439.691C74.5984 441.366 75.8907 443.609 77.5655 446.517L84.7637 459.014C85.0287 459.475 84.8763 460.06 84.4235 460.321L76.9953 464.599C77.7168 466.276 77.8711 468.149 77.4104 469.919C76.8687 472 75.5263 473.767 73.6785 474.831C71.8307 475.896 69.6282 476.17 67.5567 475.594C65.7942 475.104 64.2498 474.032 63.1615 472.567L56.5558 476.372C58.0087 478.891 59.1154 480.776 60.1367 482.2C61.2584 483.764 62.2177 484.683 63.3166 485.237C64.3264 485.745 65.4228 486.05 66.5433 486.133C67.7628 486.224 69.0375 485.927 70.7665 485.156C72.5103 484.378 74.6205 483.163 77.5166 481.495C80.4127 479.827 82.5222 478.611 84.07 477.493C85.6046 476.385 86.5011 475.431 87.0349 474.331C87.5252 473.32 87.8119 472.219 87.8786 471.09C87.9288 470.243 87.7957 469.37 87.4522 468.337C87.2846 467.833 87.553 467.293 88.0501 467.131C88.5469 466.97 89.084 467.247 89.2515 467.75C89.6544 468.961 89.8423 470.085 89.7744 471.231C89.693 472.61 89.3426 473.956 88.7433 475.192C88.0182 476.686 86.8475 477.859 85.191 479.056C83.5469 480.243 81.3393 481.515 78.4773 483.163C75.6154 484.812 73.4074 486.083 71.5552 486.909C69.6887 487.741 68.087 488.166 66.4306 488.043C65.061 487.941 63.7211 487.569 62.4869 486.947C60.9942 486.195 59.8139 484.996 58.603 483.308C57.4017 481.634 56.1093 479.391 54.4345 476.483L47.2363 463.985ZM55.5951 474.704L82.6425 459.126L76.4049 448.296L49.3576 463.874L55.5951 474.704ZM64.8225 471.61C65.6444 472.638 66.7632 473.395 68.037 473.749C69.6211 474.189 71.3048 473.977 72.7179 473.164C74.1309 472.35 75.1592 471 75.5734 469.409C75.9064 468.129 75.811 466.783 75.3344 465.556L64.8225 471.61ZM67.1756 451.39C66.3537 450.362 65.2367 449.604 63.963 449.25C62.3789 448.81 60.6952 449.022 59.2822 449.836C57.8691 450.65 56.8409 452 56.4267 453.591C56.0937 454.87 56.1869 456.218 56.6637 457.445L67.1756 451.39Z" fill="#B8860B"/>
</g>
<g clip-path="url(#clip5_55_167)">
<path d="M42.8786 148.961C43.7399 145.957 45.4969 143.288 47.913 141.306C50.3293 139.325 53.2915 138.124 56.4058 137.868C59.5197 137.612 62.639 138.31 65.3465 139.869L68.7496 141.829C69.1977 141.133 69.6257 140.509 70.0494 139.959C71.3234 138.304 72.6301 137.192 74.3559 136.728C76.0823 136.263 77.7722 136.569 79.7051 137.36C81.6122 138.142 83.888 139.453 86.8093 141.135C89.7304 142.818 92.0062 144.128 93.6392 145.386C95.2935 146.66 96.4052 147.967 96.8693 149.692C97.335 151.419 97.0293 153.108 96.2374 155.042C95.4558 156.949 94.1453 159.224 92.4626 162.146L91.263 164.229C90.998 164.689 90.4088 164.847 89.9487 164.582C89.4889 164.317 89.33 163.728 89.5949 163.268L90.7946 161.185C92.5044 158.216 93.7388 156.073 94.46 154.313C95.1704 152.579 95.324 151.351 95.012 150.194C94.7013 149.037 93.9519 148.051 92.4674 146.908C90.9605 145.748 88.8169 144.513 85.8486 142.803C82.8802 141.093 80.7363 139.859 78.9768 139.138C77.2429 138.428 76.0141 138.274 74.8574 138.586C73.7004 138.896 72.7147 139.646 71.5714 141.13C70.4111 142.637 69.1765 144.781 67.4667 147.749L57.8692 164.413C56.1594 167.381 54.925 169.525 54.2039 171.285C53.4935 173.018 53.34 174.247 53.6518 175.404C53.9625 176.561 54.7121 177.547 56.1966 178.69C57.7032 179.85 59.8469 181.085 62.8153 182.795C65.7836 184.504 67.9275 185.739 69.6872 186.46C71.2043 187.081 72.335 187.279 73.3684 187.109L73.8064 187.012L74.2341 186.876C75.2131 186.504 76.092 185.767 77.0924 184.467C78.2527 182.961 79.4873 180.817 81.1971 177.849L84.7962 171.6C85.0611 171.14 85.6505 170.982 86.1106 171.246C86.5707 171.511 86.7292 172.1 86.4642 172.56L82.8651 178.809C81.1825 181.731 79.8719 184.006 78.6145 185.639C77.3398 187.294 76.0319 188.407 74.3047 188.87C72.5795 189.334 70.8902 189.029 68.9588 188.237C67.0516 187.456 64.7758 186.145 61.8546 184.463C58.9334 182.78 56.6576 181.469 55.0246 180.212C53.3697 178.937 52.2573 177.629 51.7936 175.902C51.329 174.176 51.6349 172.488 52.4265 170.556C52.6899 169.913 53.0151 169.23 53.3926 168.493L49.9895 166.533C49.2351 166.098 48.5297 165.61 47.8747 165.068C47.4654 164.73 47.4092 164.123 47.7475 163.714C48.0859 163.306 48.6911 163.247 49.1001 163.585C49.6696 164.056 50.2864 164.483 50.9501 164.865L54.3024 166.796C54.8638 165.781 55.4985 164.672 56.2011 163.452L65.7987 146.788C66.5013 145.568 67.142 144.463 67.7382 143.468L64.3858 141.537C62.0169 140.173 59.2886 139.561 56.564 139.785C53.8393 140.009 51.2467 141.058 49.1326 142.791C47.0183 144.525 45.4822 146.864 44.7287 149.492C43.9754 152.121 44.0391 154.916 44.9134 157.506C45.0828 158.009 44.8122 158.554 44.3094 158.724C43.8066 158.894 43.2614 158.623 43.0915 158.12C42.0924 155.16 42.0175 151.964 42.8786 148.961Z" fill="#B8860B"/>
<path d="M69.334 159.92C69.5989 159.46 70.1862 159.301 70.6462 159.565L78.9782 164.364C79.4381 164.629 79.5969 165.218 79.3319 165.678C79.067 166.138 78.4777 166.297 78.0175 166.032L69.6856 161.233C69.226 160.968 69.0691 160.38 69.334 159.92Z" fill="#B8860B"/>
</g>
<defs>
<clipPath id="clip0_55_167">
<rect width="50" height="35" fill="white" transform="translate(285 20)"/>
</clipPath>
<clipPath id="clip1_55_167">
<rect width="50" height="50" fill="white" transform="translate(563.186 123.859) rotate(60.06)"/>
</clipPath>
<clipPath id="clip2_55_167">
<rect width="50" height="37" fill="white" transform="translate(582.508 449.069) rotate(119.94)"/>
</clipPath>
<clipPath id="clip3_55_167">
<rect width="50" height="50" fill="white" transform="matrix(1 0 0 -1 285 615)"/>
</clipPath>
<clipPath id="clip4_55_167">
<rect width="50" height="35" fill="white" transform="translate(63.3127 491.897) rotate(-119.94)"/>
</clipPath>
<clipPath id="clip5_55_167">
<rect width="50" height="50" fill="white" transform="translate(31.859 167.187) rotate(-60.06)"/>
</clipPath>
</defs>
</svg>
