<svg width="989" height="332" viewBox="0 0 989 332" fill="none" xmlns="http://www.w3.org/2000/svg">
<g clip-path="url(#clip0_18_62)">
<path d="M0 294.66H150M838.16 294.66H988.16" stroke="#B8860B" stroke-width="0.5" stroke-linecap="round"/>
<path d="M245.69 211.75C246.07 211.75 246.26 212.13 246.26 212.89C246.26 213.65 246.07 214.03 245.69 214.03C241.763 214.03 238.312 214.853 235.335 216.5C232.358 218.146 229.73 221.693 227.45 227.14L185.65 330.31C185.523 330.816 184.858 331.07 183.655 331.07C182.452 331.07 181.723 330.816 181.47 330.31L134.54 227.52C132.387 222.58 130.107 219.096 127.7 217.07C125.293 215.043 122.063 214.03 118.01 214.03C117.63 214.03 117.44 213.65 117.44 212.89C117.44 212.13 117.63 211.75 118.01 211.75C119.783 211.75 121.588 211.813 123.425 211.94C125.262 212.066 127.098 212.161 128.935 212.225C130.772 212.288 132.513 212.32 134.16 212.32C137.2 212.32 139.987 212.288 142.52 212.225C145.053 212.161 147.365 212.066 149.455 211.94C151.545 211.813 153.54 211.75 155.44 211.75C155.82 211.75 156.01 212.13 156.01 212.89C156.01 213.65 155.82 214.03 155.44 214.03C150.627 214.03 147.207 214.821 145.18 216.405C143.153 217.988 143.217 221.06 145.37 225.62L187.93 319.67L182.8 326.7L223.46 226C225.233 221.566 225.17 218.463 223.27 216.69C221.37 214.916 216.873 214.03 209.78 214.03C209.4 214.03 209.21 213.65 209.21 212.89C209.21 212.13 209.4 211.75 209.78 211.75C212.693 211.75 215.512 211.845 218.235 212.035C220.958 212.225 224.473 212.32 228.78 212.32C232.453 212.32 235.398 212.225 237.615 212.035C239.832 211.845 242.523 211.75 245.69 211.75ZM291.12 275.97L292.83 272.55H342.04L343.37 275.97H291.12ZM384.98 328.22C385.487 328.22 385.74 328.6 385.74 329.36C385.74 330.12 385.487 330.5 384.98 330.5C381.433 330.5 377.792 330.373 374.055 330.12C370.318 329.866 366.74 329.74 363.32 329.74C359.393 329.74 356.005 329.866 353.155 330.12C350.305 330.373 347.17 330.5 343.75 330.5C343.243 330.5 342.99 330.12 342.99 329.36C342.99 328.6 343.243 328.22 343.75 328.22C350.843 328.22 355.308 327.27 357.145 325.37C358.982 323.47 358.697 319.86 356.29 314.54L313.35 222.2L316.96 218.97L280.29 307.13C277.123 314.856 276.87 320.303 279.53 323.47C282.19 326.636 287.827 328.22 296.44 328.22C297.073 328.22 297.39 328.6 297.39 329.36C297.39 330.12 297.073 330.5 296.44 330.5C292.64 330.5 289.157 330.373 285.99 330.12C282.823 329.866 278.833 329.74 274.02 329.74C269.587 329.74 266.008 329.866 263.285 330.12C260.562 330.373 257.3 330.5 253.5 330.5C252.993 330.5 252.74 330.12 252.74 329.36C252.74 328.6 252.993 328.22 253.5 328.22C256.92 328.22 259.897 327.586 262.43 326.32C264.963 325.053 267.338 322.773 269.555 319.48C271.772 316.186 274.147 311.5 276.68 305.42L316.39 209.85C316.643 209.47 317.055 209.28 317.625 209.28C318.195 209.28 318.543 209.47 318.67 209.85L362.75 304.47C365.663 310.803 368.26 315.711 370.54 319.195C372.82 322.678 375.1 325.053 377.38 326.32C379.66 327.586 382.193 328.22 384.98 328.22ZM427.56 227.33V314.35C427.56 317.896 427.972 320.556 428.795 322.33C429.618 324.103 431.202 325.306 433.545 325.94C435.888 326.573 439.34 326.89 443.9 326.89H468.22C474.933 326.89 480.063 324.673 483.61 320.24C487.157 315.806 489.437 309.98 490.45 302.76C490.45 302.38 490.798 302.221 491.495 302.285C492.192 302.348 492.54 302.57 492.54 302.95C492.16 306.243 491.78 310.201 491.4 314.825C491.02 319.448 490.83 323.723 490.83 327.65C490.83 329.55 489.88 330.5 487.98 330.5H400.58C400.327 330.5 400.2 330.12 400.2 329.36C400.2 328.6 400.327 328.22 400.58 328.22C405.393 328.22 409.003 327.903 411.41 327.27C413.817 326.636 415.432 325.37 416.255 323.47C417.078 321.57 417.49 318.783 417.49 315.11V227.14C417.49 223.466 417.078 220.711 416.255 218.875C415.432 217.038 413.817 215.771 411.41 215.075C409.003 214.378 405.393 214.03 400.58 214.03C400.327 214.03 400.2 213.65 400.2 212.89C400.2 212.13 400.327 211.75 400.58 211.75C403.62 211.75 407.008 211.845 410.745 212.035C414.482 212.225 418.377 212.32 422.43 212.32C426.737 212.32 430.758 212.225 434.495 212.035C438.232 211.845 441.557 211.75 444.47 211.75C444.723 211.75 444.85 212.13 444.85 212.89C444.85 213.65 444.723 214.03 444.47 214.03C439.657 214.03 436.047 214.378 433.64 215.075C431.233 215.771 429.618 217.07 428.795 218.97C427.972 220.87 427.56 223.656 427.56 227.33ZM589.27 330.5H510.8C510.547 330.5 510.42 330.12 510.42 329.36C510.42 328.6 510.547 328.22 510.8 328.22C515.613 328.22 519.223 327.903 521.63 327.27C524.037 326.636 525.652 325.37 526.475 323.47C527.298 321.57 527.71 318.783 527.71 315.11V227.14C527.71 223.466 527.298 220.711 526.475 218.875C525.652 217.038 524.037 215.771 521.63 215.075C519.223 214.378 515.613 214.03 510.8 214.03C510.547 214.03 510.42 213.65 510.42 212.89C510.42 212.13 510.547 211.75 510.8 211.75H586.04C587.18 211.75 587.75 212.32 587.75 213.46L588.13 236.45C588.13 236.83 587.782 237.02 587.085 237.02C586.388 237.02 586.04 236.83 586.04 236.45C586.04 229.863 584.33 224.701 580.91 220.965C577.49 217.228 572.993 215.36 567.42 215.36H554.31C549.623 215.36 546.108 215.676 543.765 216.31C541.422 216.943 539.838 218.178 539.015 220.015C538.192 221.851 537.78 224.606 537.78 228.28V314.35C537.78 317.896 538.192 320.556 539.015 322.33C539.838 324.103 541.422 325.306 543.765 325.94C546.108 326.573 549.623 326.89 554.31 326.89H571.79C576.857 326.89 581.227 324.673 584.9 320.24C588.573 315.806 590.853 309.98 591.74 302.76C591.74 302.38 592.12 302.221 592.88 302.285C593.64 302.348 594.02 302.57 594.02 302.95C593.513 306.243 593.102 310.201 592.785 314.825C592.468 319.448 592.31 323.723 592.31 327.65C592.31 329.55 591.297 330.5 589.27 330.5ZM578.63 285.85C578.63 280.15 577.427 276.16 575.02 273.88C572.613 271.6 568.37 270.46 562.29 270.46H533.03V266.85H562.86C568.687 266.85 572.74 265.868 575.02 263.905C577.3 261.941 578.44 258.553 578.44 253.74C578.44 253.486 578.82 253.36 579.58 253.36C580.34 253.36 580.72 253.486 580.72 253.74C580.72 257.413 580.688 260.263 580.625 262.29C580.562 264.316 580.53 266.47 580.53 268.75C580.53 271.536 580.593 274.291 580.72 277.015C580.847 279.738 580.91 282.683 580.91 285.85C580.91 286.103 580.53 286.23 579.77 286.23C579.01 286.23 578.63 286.103 578.63 285.85ZM718.11 330.5C715.957 330.5 712.41 328.03 707.47 323.09C702.53 318.15 696.577 311.088 689.61 301.905C682.643 292.721 674.853 281.86 666.24 269.32L675.36 266.47C686.253 281.796 695.5 293.988 703.1 303.045C710.7 312.101 717.413 318.561 723.24 322.425C729.067 326.288 734.703 328.22 740.15 328.22C740.53 328.22 740.72 328.6 740.72 329.36C740.72 330.12 740.53 330.5 740.15 330.5C734.45 330.5 729.795 330.5 726.185 330.5C722.575 330.5 719.883 330.5 718.11 330.5ZM668.52 211.18C678.273 211.18 685.715 213.523 690.845 218.21C695.975 222.896 698.54 228.976 698.54 236.45C698.54 243.163 696.577 249.243 692.65 254.69C688.723 260.136 683.498 264.443 676.975 267.61C670.452 270.776 663.263 272.36 655.41 272.36C654.27 272.36 652.94 272.296 651.42 272.17C649.9 272.043 648.507 271.916 647.24 271.79V315.11C647.24 318.783 647.62 321.57 648.38 323.47C649.14 325.37 650.755 326.636 653.225 327.27C655.695 327.903 659.337 328.22 664.15 328.22C664.53 328.22 664.72 328.6 664.72 329.36C664.72 330.12 664.53 330.5 664.15 330.5C661.11 330.5 657.785 330.436 654.175 330.31C650.565 330.183 646.543 330.12 642.11 330.12C638.057 330.12 634.13 330.183 630.33 330.31C626.53 330.436 623.11 330.5 620.07 330.5C619.817 330.5 619.69 330.12 619.69 329.36C619.69 328.6 619.817 328.22 620.07 328.22C624.883 328.22 628.525 327.903 630.995 327.27C633.465 326.636 635.143 325.37 636.03 323.47C636.917 321.57 637.36 318.783 637.36 315.11V227.14C637.36 223.466 636.948 220.711 636.125 218.875C635.302 217.038 633.687 215.771 631.28 215.075C628.873 214.378 625.263 214.03 620.45 214.03C620.07 214.03 619.88 213.65 619.88 212.89C619.88 212.13 620.07 211.75 620.45 211.75C623.363 211.75 626.688 211.845 630.425 212.035C634.162 212.225 638.057 212.32 642.11 212.32C646.037 212.32 650.597 212.13 655.79 211.75C660.983 211.37 665.227 211.18 668.52 211.18ZM687.9 241.58C687.9 234.74 686.792 229.293 684.575 225.24C682.358 221.186 679.192 218.241 675.075 216.405C670.958 214.568 665.987 213.65 660.16 213.65C655.6 213.65 652.307 214.473 650.28 216.12C648.253 217.766 647.24 221.566 647.24 227.52V267.42C649.013 267.546 650.945 267.673 653.035 267.8C655.125 267.926 656.993 267.99 658.64 267.99C669.533 267.99 677.133 265.71 681.44 261.15C685.747 256.59 687.9 250.066 687.9 241.58ZM802.87 275.4L832.51 230.56C836.057 224.986 837.323 220.838 836.31 218.115C835.297 215.391 832.003 214.03 826.43 214.03C826.177 214.03 826.05 213.65 826.05 212.89C826.05 212.13 826.177 211.75 826.43 211.75C829.723 211.75 832.89 211.845 835.93 212.035C838.97 212.225 842.897 212.32 847.71 212.32C850.877 212.32 853.442 212.225 855.405 212.035C857.368 211.845 859.743 211.75 862.53 211.75C862.783 211.75 862.91 212.13 862.91 212.89C862.91 213.65 862.783 214.03 862.53 214.03C859.363 214.03 856.26 214.695 853.22 216.025C850.18 217.355 847.298 219.286 844.575 221.82C841.852 224.353 839.287 227.456 836.88 231.13L805.91 278.06L802.87 275.4ZM803.06 279.01L767.53 227.52C764.237 222.58 761.007 219.096 757.84 217.07C754.673 215.043 750.747 214.03 746.06 214.03C745.68 214.03 745.49 213.65 745.49 212.89C745.49 212.13 745.68 211.75 746.06 211.75C748.213 211.75 750.525 211.845 752.995 212.035C755.465 212.225 757.777 212.32 759.93 212.32C763.35 212.32 766.548 212.288 769.525 212.225C772.502 212.161 775.32 212.066 777.98 211.94C780.64 211.813 783.047 211.75 785.2 211.75C785.453 211.75 785.58 212.13 785.58 212.89C785.58 213.65 785.453 214.03 785.2 214.03C780.007 214.03 776.713 214.6 775.32 215.74C773.927 216.88 774.243 218.843 776.27 221.63L810.09 270.27L803.06 279.01ZM800.02 271.6L810.09 269.89V315.11C810.09 318.783 810.47 321.57 811.23 323.47C811.99 325.37 813.573 326.636 815.98 327.27C818.387 327.903 821.997 328.22 826.81 328.22C827.19 328.22 827.38 328.6 827.38 329.36C827.38 330.12 827.19 330.5 826.81 330.5C823.897 330.5 820.603 330.436 816.93 330.31C813.257 330.183 809.267 330.12 804.96 330.12C800.78 330.12 796.79 330.183 792.99 330.31C789.19 330.436 785.833 330.5 782.92 330.5C782.54 330.5 782.35 330.12 782.35 329.36C782.35 328.6 782.54 328.22 782.92 328.22C787.733 328.22 791.375 327.903 793.845 327.27C796.315 326.636 797.962 325.37 798.785 323.47C799.608 321.57 800.02 318.783 800.02 315.11V271.6Z" fill="#B8860B"/>
<path d="M642 229.617C642.266 229.689 642.424 229.963 642.352 230.229C642.281 230.496 642.007 230.655 641.74 230.583L636.58 229.197V228.162L642 229.617Z" fill="#B8860B"/>
<path fill-rule="evenodd" clip-rule="evenodd" d="M494.08 0C494.29 0 494.478 0.131646 494.55 0.329102L500.71 17.2393C500.804 17.4986 500.67 17.7854 500.411 17.8799C500.152 17.9743 499.865 17.8405 499.77 17.5811L494.58 3.33203V55.0029C531.619 55.1367 565.154 70.1319 589.536 94.3359L603.326 80.5469C603.521 80.3516 603.838 80.3516 604.033 80.5469C604.228 80.7421 604.228 81.0587 604.033 81.2539L590.243 95.043C614.448 119.426 629.443 152.96 629.577 190H681.247L666.999 184.81C666.739 184.715 666.606 184.428 666.7 184.169C666.795 183.91 667.081 183.776 667.341 183.87L684.251 190.03C684.448 190.102 684.58 190.29 684.58 190.5C684.58 190.71 684.448 190.898 684.251 190.97L667.341 197.13C667.081 197.224 666.795 197.09 666.7 196.831C666.606 196.572 666.739 196.285 666.999 196.19L681.247 191H629.577C629.576 191.167 629.573 191.333 629.572 191.5H628.572C628.573 191.333 628.576 191.167 628.577 191H604.577C604.576 191.167 604.574 191.333 604.572 191.5H603.572C603.574 191.333 603.576 191.167 603.577 191H572.577C572.576 191.167 572.572 191.333 572.57 191.5H571.57C571.572 191.333 571.576 191.167 571.577 191H556.577C556.576 191.167 556.573 191.333 556.57 191.5H555.57C555.572 191.378 555.575 191.257 555.576 191.135C536.707 195.716 520.175 195.687 506.001 191H504.567C504.559 191.168 504.547 191.334 504.531 191.5H503.525C503.543 191.335 503.558 191.168 503.566 191H498.048C498.026 191.17 497.993 191.337 497.951 191.5H490.209C490.167 191.337 490.133 191.17 490.112 191H484.594C484.602 191.168 484.617 191.334 484.635 191.5H483.629C483.613 191.334 483.601 191.168 483.593 191H482.159C467.985 195.687 451.453 195.716 432.583 191.135C432.584 191.257 432.587 191.378 432.589 191.5H431.59C431.587 191.333 431.584 191.167 431.583 191H416.583C416.584 191.167 416.588 191.333 416.59 191.5H415.59C415.588 191.333 415.584 191.167 415.583 191H384.583C384.584 191.167 384.586 191.333 384.588 191.5H383.588C383.586 191.333 383.584 191.167 383.583 191H359.583C359.583 191.167 359.587 191.333 359.588 191.5H358.588C358.587 191.333 358.583 191.167 358.583 191H306.913L321.161 196.19C321.42 196.285 321.554 196.572 321.46 196.831C321.365 197.09 321.079 197.224 320.819 197.13L303.909 190.97C303.712 190.898 303.58 190.71 303.58 190.5C303.58 190.29 303.712 190.102 303.909 190.03L320.819 183.87C321.079 183.776 321.365 183.91 321.46 184.169C321.554 184.428 321.42 184.715 321.161 184.81L306.913 190H358.583C358.717 152.961 373.712 119.425 397.916 95.043L384.127 81.2539C383.932 81.0586 383.932 80.7421 384.127 80.5469C384.322 80.3516 384.639 80.3516 384.834 80.5469L398.623 94.3359C423.005 70.1316 456.541 55.1367 493.58 55.0029V3.33203L488.39 17.5811C488.295 17.8405 488.008 17.9743 487.749 17.8799C487.49 17.7854 487.356 17.4986 487.45 17.2393L493.61 0.329102L493.642 0.257812C493.729 0.100501 493.896 0 494.08 0ZM398.623 95.75C374.6 119.952 359.717 153.237 359.583 190H383.583C383.716 159.864 395.912 132.578 415.593 112.72L398.623 95.75ZM416.3 113.427C396.8 133.104 384.716 160.14 384.583 190H415.583C415.716 168.701 424.331 149.414 438.221 135.348L416.3 113.427ZM438.928 136.055C425.219 149.941 416.716 168.977 416.583 190H431.583C431.715 173.119 438.539 157.832 449.534 146.661L438.928 136.055ZM450.145 147.465C444.834 152.887 440.519 159.289 437.494 166.373C456.721 169.371 472.008 175.745 483.317 185.532C483.48 185.673 483.534 185.903 483.452 186.102C483.37 186.3 483.169 186.425 482.954 186.409C468.034 185.332 452.718 179.024 437.009 167.54C434.227 174.449 432.663 181.979 432.583 189.864C451.453 185.283 467.985 185.313 482.159 190H483.593C483.711 187.477 484.718 185.187 486.309 183.437L485.292 182.419C471.955 175.713 460.245 164.046 450.145 147.465ZM487.018 184.146C485.607 185.713 484.71 187.753 484.594 190H490.112C490.203 189.27 490.491 188.601 490.921 188.048L487.018 184.146ZM497.238 188.048C497.668 188.601 497.957 189.27 498.048 190H503.566C503.45 187.753 502.552 185.713 501.141 184.146L497.238 188.048ZM538.014 147.465C527.913 164.046 516.204 175.713 502.867 182.419L501.849 183.437C503.441 185.187 504.449 187.477 504.567 190H506.001C520.175 185.313 536.707 185.283 555.576 189.864C555.496 181.979 553.932 174.449 551.15 167.54C535.441 179.024 520.126 185.332 505.206 186.409C504.991 186.425 504.79 186.3 504.708 186.102C504.625 185.903 504.68 185.673 504.843 185.532C516.152 175.746 531.439 169.371 550.665 166.373C547.64 159.288 543.325 152.887 538.014 147.465ZM538.625 146.661C549.62 157.832 556.445 173.119 556.577 190H571.577C571.444 168.977 562.941 149.941 549.231 136.055L538.625 146.661ZM549.938 135.348C563.828 149.415 572.444 168.7 572.577 190H603.577C603.444 160.14 591.359 133.104 571.859 113.427L549.938 135.348ZM572.566 112.72C592.247 132.578 604.444 159.864 604.577 190H628.577C628.443 153.237 613.56 119.952 589.536 95.75L572.566 112.72ZM493.58 181.013C491.333 181.129 489.293 182.027 487.725 183.438L491.628 187.341C492.181 186.911 492.85 186.622 493.58 186.531V181.013ZM494.58 186.531C495.31 186.622 495.978 186.911 496.531 187.341L500.433 183.438C498.866 182.027 496.826 181.129 494.58 181.013V186.531ZM438.787 167.594C453.42 178.059 467.644 183.94 481.466 185.278C470.748 176.452 456.533 170.55 438.787 167.594ZM549.372 167.594C531.627 170.55 517.41 176.452 506.693 185.278C520.515 183.941 534.739 178.059 549.372 167.594ZM493.444 129.003C485.559 129.083 478.029 130.647 471.12 133.429C482.604 149.138 488.912 164.454 489.989 179.374C490.005 179.589 489.88 179.79 489.682 179.872C489.483 179.954 489.253 179.9 489.112 179.737C479.325 168.428 472.951 153.141 469.953 133.914C462.869 136.939 456.467 141.254 451.045 146.565C467.626 156.666 479.293 168.375 485.999 181.712L487.016 182.729C488.767 181.138 491.057 180.13 493.58 180.012V178.579C488.893 164.405 488.863 147.873 493.444 129.003ZM494.715 129.003C499.296 147.873 499.267 164.405 494.58 178.579V180.012C497.102 180.13 499.392 181.138 501.142 182.729L502.16 181.712C508.866 168.375 520.534 156.666 537.114 146.565C531.692 141.254 525.291 136.939 518.206 133.914C515.208 153.141 508.834 168.428 499.048 179.737C498.907 179.9 498.677 179.954 498.478 179.872C498.279 179.79 498.155 179.589 498.171 179.374C499.248 164.454 505.554 149.138 517.038 133.429C510.13 130.647 502.6 129.083 494.715 129.003ZM471.174 135.207C474.13 152.953 480.032 167.168 488.858 177.886C487.52 164.065 481.639 149.84 471.174 135.207ZM516.985 135.207C506.52 149.84 500.639 164.065 499.301 177.886C508.127 167.168 514.029 152.953 516.985 135.207ZM493.58 113.002C472.557 113.135 453.52 121.639 439.635 135.348L450.241 145.954C461.412 134.959 476.699 128.135 493.58 128.003V113.002ZM494.58 128.003C511.461 128.135 526.747 134.96 537.918 145.954L548.524 135.348C534.639 121.639 515.603 113.135 494.58 113.002V128.003ZM493.58 81.0029C463.72 81.1364 436.684 93.2203 417.007 112.72L438.928 134.641C452.994 120.751 472.281 112.136 493.58 112.003V81.0029ZM494.58 112.003C515.879 112.136 535.165 120.751 549.231 134.641L571.152 112.72C551.475 93.2206 524.439 81.1364 494.58 81.0029V112.003ZM493.58 56.0029C456.817 56.1367 423.531 71.0196 399.33 95.043L416.3 112.013C436.158 92.3323 463.444 80.1364 493.58 80.0029V56.0029ZM494.58 80.0029C524.716 80.1364 552.001 92.3326 571.859 112.013L588.829 95.043C564.627 71.0199 531.343 56.1367 494.58 56.0029V80.0029Z" fill="#B8860B"/>
<path d="M346.42 150.417L358.01 153.527C358.276 153.599 358.435 153.873 358.363 154.14C358.292 154.406 358.017 154.565 357.75 154.493L346.16 151.383C345.894 151.311 345.736 151.037 345.807 150.771C345.879 150.504 346.153 150.345 346.42 150.417Z" fill="#B8860B"/>
<path d="M641.74 150.417C642.007 150.345 642.281 150.504 642.352 150.771C642.424 151.037 642.266 151.311 642 151.383L630.41 154.493C630.143 154.565 629.868 154.406 629.797 154.14C629.725 153.873 629.884 153.599 630.15 153.527L641.74 150.417Z" fill="#B8860B"/>
<path d="M454.35 42.2275C454.617 42.156 454.891 42.3136 454.963 42.5801L458.073 54.1709C458.144 54.4374 457.986 54.7117 457.72 54.7832C457.453 54.8547 457.179 54.6963 457.107 54.4297L453.997 42.8398C453.925 42.5731 454.084 42.2991 454.35 42.2275Z" fill="#B8860B"/>
<path d="M533.809 42.2275C534.076 42.2991 534.235 42.5732 534.163 42.8398L531.053 54.4297C530.981 54.6963 530.707 54.8547 530.44 54.7832C530.174 54.7117 530.016 54.4374 530.087 54.1709L533.197 42.5801C533.269 42.3136 533.543 42.156 533.809 42.2275Z" fill="#B8860B"/>
</g>
<defs>
<clipPath id="clip0_18_62">
<rect width="988.16" height="331.07" fill="white"/>
</clipPath>
</defs>
</svg>
