<svg width="512" height="512" viewBox="0 0 512 512" fill="none" xmlns="http://www.w3.org/2000/svg">
<path d="M256 38C376.398 38 474 135.602 474 256C474 295.386 463.554 332.331 445.283 364.219L445.736 365H444.834C407.141 430.16 336.691 474 256 474C175.309 474 104.859 430.16 67.166 365H66.2637L66.7158 364.219C48.4454 332.331 38 295.385 38 256C38 135.602 135.602 38 256 38ZM71.8018 365C108.921 427.592 177.036 469.64 255 469.997V386.993C228.49 386.795 203.856 378.723 183.316 365H71.8018ZM328.684 365C308.144 378.723 283.51 386.795 257 386.993V469.997C334.964 469.64 403.079 427.593 440.198 365H328.684ZM186.981 365C206.678 377.498 229.991 384.803 255 384.993V365H186.981ZM257 384.993C282.009 384.803 305.322 377.498 325.019 365H257V384.993ZM70.1846 362.226C70.3327 362.484 70.4817 362.742 70.6309 363H180.406C149.687 341.258 128.743 306.622 125.455 266.973L70.1846 362.226ZM257 184H255V127.006C234.901 127.158 215.895 131.906 198.983 140.253L132.403 255H184V257H131.242L127.239 263.897C129.732 305.167 151.626 341.202 183.922 363H255V328H257V363H328.078C360.374 341.202 382.267 305.167 384.76 263.897L380.758 257H328V255H379.597L313.016 140.253C296.104 131.906 277.099 127.158 257 127.006V184ZM386.544 266.973C383.256 306.622 362.313 341.258 331.594 363H441.369C441.518 362.742 441.666 362.484 441.814 362.226L386.544 266.973ZM42.0029 257C42.1743 294.458 51.9691 329.643 69.043 360.209L125.208 263.412C125.09 261.288 125.022 259.15 125.006 257H42.0029ZM386.994 257C386.978 259.15 386.91 261.288 386.791 263.412L442.956 360.209C460.03 329.643 469.826 294.458 469.997 257H386.994ZM127.007 257C127.015 258.072 127.035 259.14 127.069 260.205L128.93 257H127.007ZM384.93 260.205C384.964 259.14 384.985 258.072 384.993 257H383.07L384.93 260.205ZM253.675 42.0127C136.89 43.256 42.538 138.046 42.0029 255H125.006C125.387 204.077 154.821 160.067 197.556 138.729L253.675 42.0127ZM195.695 141.935C155.111 163.435 127.379 205.961 127.007 255H130.091L195.695 141.935ZM381.909 255H384.993C384.621 205.961 356.888 163.435 316.304 141.935L381.909 255ZM314.443 138.729C357.178 160.067 386.613 204.076 386.994 255H469.997C469.462 138.046 375.11 43.2554 258.324 42.0127L314.443 138.729ZM200.768 137.178C217.267 129.495 235.634 125.151 255 125.006V43.7148L200.768 137.178ZM257 125.006C276.366 125.151 294.732 129.495 311.231 137.178L257 43.7148V125.006Z" fill="#B8860B"/>
<path d="M328 201.143V310.857C328 320.31 320.31 328 310.857 328H201.143C191.69 328 184 320.31 184 310.857V201.143C184 191.69 191.69 184 201.143 184H310.857C320.31 184 328 191.69 328 201.143ZM285.294 293.416C294.588 284.131 294.328 272.526 291.28 265.405C289.429 261.102 286.11 257.416 281.687 254.749L280.922 254.276C279.791 253.562 278.834 252.99 277.336 252.417C277.308 251.464 277.25 250.511 277.137 249.65C275.114 234.013 264.962 230.673 256.778 230.622C249.393 230.622 243.249 233.776 239.485 239.508L245.217 243.273C247.741 239.43 251.632 237.482 256.758 237.482C264.873 237.534 269.186 241.676 270.335 250.514C266.423 249.722 262.017 249.438 257.282 249.715C243.828 250.49 238.216 258.599 238.624 266.296C239.084 274.819 246.434 280.772 256.508 280.772C256.953 280.772 257.395 280.761 257.824 280.734C265.699 280.302 275.327 276.311 277.058 259.946C277.13 259.991 277.199 260.036 277.271 260.08L278.138 260.618C281.334 262.545 283.696 265.134 284.975 268.11C287.18 273.256 287.313 281.7 280.442 288.565C274.504 294.496 267.372 297.064 256.662 297.143C244.764 297.054 235.751 293.217 229.878 285.743C224.406 278.79 221.58 268.761 221.474 255.993C221.58 243.211 224.406 233.207 229.878 226.257C235.754 218.78 244.789 214.946 256.669 214.857C268.641 214.946 277.806 218.797 283.905 226.302C286.867 229.946 289.134 234.561 290.642 240.009L297.252 238.185C295.49 231.815 292.792 226.36 289.226 221.975C281.772 212.807 270.839 208.106 256.669 208C242.543 208.106 231.715 212.821 224.485 222.02C218.056 230.19 214.734 241.604 214.614 255.996C214.734 270.373 218.056 281.81 224.485 289.984C231.715 299.179 242.526 303.897 256.662 304C269.224 303.907 278.056 300.644 285.294 293.416ZM269.69 257.389C269.93 257.444 270.163 257.495 270.383 257.546C270.366 257.814 270.349 258.047 270.332 258.225C269.255 271.692 262.463 273.616 257.436 273.89C257.125 273.907 256.816 273.918 256.508 273.918C250.161 273.918 245.728 270.709 245.474 265.932C245.251 261.756 248.341 257.101 257.683 256.566C258.702 256.504 259.703 256.473 260.684 256.473C263.971 256.47 267.002 256.778 269.69 257.389Z" fill="#B8860B"/>
</svg>
