<svg width="512" height="512" viewBox="0 0 512 512" fill="none" xmlns="http://www.w3.org/2000/svg">
<path fill-rule="evenodd" clip-rule="evenodd" d="M256 38C376.398 38 474 135.602 474 256C474 295.386 463.554 332.331 445.283 364.219L445.736 365H444.834C407.141 430.16 336.691 474 256 474C175.309 474 104.859 430.16 67.166 365H66.2637L66.7158 364.219C48.4454 332.331 38 295.385 38 256C38 135.602 135.602 38 256 38ZM71.8018 365C108.921 427.592 177.036 469.64 255 469.997V386.993C228.49 386.795 203.856 378.723 183.316 365H71.8018ZM328.684 365C308.144 378.723 283.51 386.795 257 386.993V469.997C334.964 469.64 403.079 427.593 440.198 365H328.684ZM186.981 365C206.678 377.498 229.991 384.803 255 384.993V365H186.981ZM257 384.993C282.009 384.803 305.322 377.498 325.019 365H257V384.993ZM70.1846 362.226C70.3327 362.484 70.4817 362.742 70.6309 363H180.406C149.687 341.258 128.743 306.622 125.455 266.973L70.1846 362.226ZM257 184H255V127.006C234.901 127.158 215.895 131.906 198.983 140.253L132.403 255H184V257H131.242L127.239 263.897C129.732 305.167 151.626 341.202 183.922 363H255V328H257V363H328.078C360.374 341.202 382.267 305.167 384.76 263.897L380.758 257H328V255H379.597L313.016 140.253C296.104 131.906 277.099 127.158 257 127.006V184ZM386.544 266.973C383.256 306.622 362.313 341.258 331.594 363H441.369C441.518 362.742 441.666 362.484 441.814 362.226L386.544 266.973ZM42.0029 257C42.1743 294.458 51.9691 329.643 69.043 360.209L125.208 263.412C125.09 261.288 125.022 259.15 125.006 257H42.0029ZM386.994 257C386.978 259.15 386.91 261.288 386.791 263.412L442.956 360.209C460.03 329.643 469.826 294.458 469.997 257H386.994ZM127.007 257C127.015 258.072 127.035 259.14 127.069 260.205L128.93 257H127.007ZM384.93 260.205C384.964 259.14 384.985 258.072 384.993 257H383.07L384.93 260.205ZM253.675 42.0127C136.89 43.256 42.538 138.046 42.0029 255H125.006C125.387 204.077 154.821 160.067 197.556 138.729L253.675 42.0127ZM195.695 141.935C155.111 163.435 127.379 205.961 127.007 255H130.091L195.695 141.935ZM381.909 255H384.993C384.621 205.961 356.888 163.435 316.304 141.935L381.909 255ZM314.443 138.729C357.178 160.067 386.613 204.076 386.994 255H469.997C469.462 138.046 375.11 43.2554 258.324 42.0127L314.443 138.729ZM200.768 137.178C217.267 129.495 235.634 125.151 255 125.006V43.7148L200.768 137.178ZM257 125.006C276.366 125.151 294.732 129.495 311.231 137.178L257 43.7148V125.006Z" fill="#B8860B"/>
<path d="M208 184C194.84 184 184 194.84 184 208V304C184 317.16 194.84 328 208 328H304C317.16 328 328 317.16 328 304V208C328 194.84 317.16 184 304 184H208ZM256 216H272C272 224.04 283.768 232 288 232V248C283.16 248 277.344 245.873 272 242.281V272C272 285.232 261.232 296 248 296C234.768 296 224 285.232 224 272C224 258.768 234.768 248 248 248V264C243.584 264 240 267.592 240 272C240 276.408 243.584 280 248 280C252.416 280 256 276.408 256 272V216Z" fill="#B8860B"/>
</svg>
